<svg width="500" height="500" viewBox="0 0 500 500" fill="none" xmlns="http://www.w3.org/2000/svg">
<g clip-path="url(#clip0_1_38)">
<path d="M100.726 151.841H189.405C190.794 151.841 192.084 152.562 192.812 153.745L244.383 237.561C245.984 240.164 249.795 240.082 251.283 237.413L331.185 94.1012C332.666 91.4442 330.757 88.1715 327.715 88.1535L61.7325 86.5739C60.298 86.5654 58.9779 85.7894 58.2728 84.5402L12.9913 4.31829C11.4862 1.65181 13.4128 -1.64792 16.4747 -1.64792H483.451C486.529 -1.64792 488.454 1.68431 486.915 4.35098L302.579 323.864C301.864 325.103 301.865 326.628 302.58 327.865L348.908 408.007C349.618 409.235 349.624 410.748 348.924 411.982L302.082 494.567C300.556 497.258 296.684 497.272 295.138 494.593L216.943 359.121L97.2881 157.885C95.7027 155.219 97.6242 151.841 100.726 151.841Z" fill="#41BC64"/>
</g>
<defs>
<clipPath id="clip0_1_38">
<rect width="500" height="500" fill="white"/>
</clipPath>
</defs>
</svg>
